<?xml version="1.0" encoding="utf-8"?>
<!-- Generator: Adobe Illustrator 19.2.1, SVG Export Plug-In . SVG Version: 6.00 Build 0)  -->
<svg version="1.1" id="Layer_1" xmlns="http://www.w3.org/2000/svg" xmlns:xlink="http://www.w3.org/1999/xlink" x="0px" y="0px"
	 viewBox="0 0 48 48" style="enable-background:new 0 0 48 48;" xml:space="preserve">
<g>
	<path d="M14,10h9V0.1C19.3,0.7,16,4.5,14,10z"/>
	<path d="M23,23V12.1h-9.7c-1,3.2-1.5,6.9-1.6,10.9H23z"/>
	<path d="M25,0.1V10h9C32,4.5,28.7,0.7,25,0.1z"/>
	<path d="M9.6,25H0c0.2,4,1.2,7.7,3,10.9c0.1,0,0.2-0.1,0.3-0.1h7.8C10.3,32.7,9.7,29,9.6,25z"/>
	<path d="M38.4,25c-0.1,3.9-0.6,7.6-1.5,10.9h7.8c0.1,0,0.2,0,0.3,0.1c1.8-3.3,2.8-7,3-10.9H38.4z"/>
	<path d="M23,25H11.7c0.1,3.9,0.7,7.6,1.6,10.9H23L23,25L23,25z"/>
	<path d="M9.6,23c0.1-3.9,0.6-7.6,1.5-10.9H3.3c-0.1,0-0.2,0-0.3-0.1C1.2,15.3,0.2,19,0,23H9.6z"/>
	<path d="M36.3,23c-0.1-3.9-0.7-7.6-1.6-10.9H25V23H36.3z"/>
	<path d="M11.8,10c1.5-4.4,3.8-8,6.5-10C12.5,1.5,7.5,5.1,4.2,10H11.8z"/>
	<path d="M11.8,38H4.2c3.3,4.9,8.3,8.6,14.1,10C15.6,46,13.4,42.4,11.8,38z"/>
	<path d="M36.2,10h7.6c-3.3-4.9-8.3-8.6-14.1-10C32.4,2,34.6,5.6,36.2,10z"/>
	<path d="M36.2,38c-1.5,4.4-3.8,8-6.5,10c5.8-1.5,10.8-5.1,14.1-10H36.2z"/>
	<path d="M44.7,12.1h-7.8c0.9,3.3,1.5,6.9,1.5,10.9H48c-0.2-4-1.2-7.7-3-10.9C44.9,12.1,44.8,12.1,44.7,12.1z"/>
	<path d="M34,38h-9v9.9C28.7,47.3,32,43.5,34,38z"/>
	<path d="M25,25v10.9h9.7c1-3.2,1.5-6.9,1.6-10.9C36.3,25,25,25,25,25z"/>
	<path d="M23,47.9V38h-9C16,43.5,19.3,47.3,23,47.9z"/>
</g>
</svg>
